<svg width="96" height="96" viewBox="0 0 96 96" fill="none" xmlns="http://www.w3.org/2000/svg">
<path d="M58.5 36.2061H37.5C27.1875 40.3686 19.9125 50.4748 19.9125 62.2686C19.9125 77.7936 32.4938 90.3748 48.0188 90.3748C63.5438 90.3748 76.125 77.7936 76.125 62.2686C76.1063 50.4748 68.8125 40.3686 58.5 36.2061ZM48 81.8061C37.2188 81.8061 28.4813 73.0686 28.4813 62.2873C28.4813 51.5061 37.2188 42.7686 48 42.7686C58.7813 42.7686 67.5188 51.5061 67.5188 62.2873C67.5188 73.0686 58.7813 81.8061 48 81.8061Z" fill="#3B4652"/>
<path d="M58.875 28.6309H37.125V33.5996H58.875V28.6309Z" fill="#3B4652"/>
<path d="M46.6875 10.0874L36.4688 16.2937L46.6875 20.3812V10.0874Z" fill="#F26E22"/>
<path d="M46.6875 26.006V23.2122L35.925 18.9185L39.3937 26.006H46.6875Z" fill="#F26E22"/>
<path d="M59.3062 16.1624L49.3125 10.0874V20.3624C50.7562 19.7437 52.8937 18.8437 55.0125 17.9624C56.7 17.2312 58.1437 16.6312 59.3062 16.1624Z" fill="#F26E22"/>
<path d="M60.2063 18.6372C57.2063 19.8747 52.725 21.7497 49.3125 23.1935V26.006H56.6062L60.2063 18.6372Z" fill="#F26E22"/>
<path d="M77.7187 19.9312H70.0875C69.3562 19.9312 68.775 20.5124 68.775 21.2437C68.775 21.9749 69.3562 22.5562 70.0875 22.5562H77.7187C78.45 22.5562 79.0312 21.9749 79.0312 21.2437C79.0312 20.5124 78.45 19.9312 77.7187 19.9312Z" fill="#3B4652"/>
<path d="M65.2875 12.2434C65.625 12.2434 65.9625 12.1121 66.225 11.8684L70.2188 7.87461C70.725 7.36836 70.725 6.52461 70.2188 6.01836C69.7125 5.51211 68.8688 5.51211 68.3625 6.01836L64.3688 10.0121C63.8625 10.5184 63.8625 11.3621 64.3688 11.8684C64.6125 12.1121 64.95 12.2434 65.2875 12.2434Z" fill="#3B4652"/>
<path d="M27.225 21.2437C27.225 20.5124 26.6437 19.9312 25.9125 19.9312H18.2812C17.55 19.9312 16.9688 20.5124 16.9688 21.2437C16.9688 21.9749 17.55 22.5562 18.2812 22.5562H25.9125C26.625 22.5562 27.225 21.9749 27.225 21.2437Z" fill="#3B4652"/>
<path d="M29.7938 11.8686C30.0563 12.1311 30.3938 12.2436 30.7313 12.2436C31.0688 12.2436 31.4063 12.1123 31.6688 11.8686C32.175 11.3623 32.175 10.5186 31.6688 10.0123L27.6563 5.9998C27.15 5.49355 26.3063 5.49355 25.8 5.9998C25.2938 6.50605 25.2938 7.3498 25.8 7.85606L29.7938 11.8686Z" fill="#3B4652"/>
</svg>
