<svg width="96" height="96" viewBox="0 0 96 96" fill="none" xmlns="http://www.w3.org/2000/svg">
<path d="M73.575 71.8313L68.6063 32.0437C68.3063 29.6437 66.2813 27.8625 63.8625 27.8625H61.2V12.5062C61.2 9.99375 59.1563 7.96875 56.6625 7.96875H39.3375C36.825 7.96875 34.8 10.0125 34.8 12.5062V27.8625H32.1375C29.7188 27.8625 27.6938 29.6625 27.3938 32.0437L22.425 71.8313C22.0313 75.0188 24.5063 77.8125 27.7125 77.8125H33.2438V62.6812C33.2438 61.1437 34.05 59.7187 35.3625 58.9312L45.7313 52.6875C46.4063 52.275 47.1938 52.0688 47.9813 52.0688C48.7688 52.0688 49.5563 52.2938 50.2313 52.6875L60.6 58.9312C61.9125 59.7187 62.7188 61.1625 62.7188 62.6812V77.8125H68.25C71.4938 77.8125 73.9688 75.0188 73.575 71.8313ZM37.425 12.5062C37.425 11.4562 38.2875 10.5938 39.3375 10.5938H56.6625C57.7125 10.5938 58.575 11.4562 58.575 12.5062V27.8625H37.425V12.5062ZM55.4063 43.9688H40.5938C38.4 43.9688 36.6 42.1875 36.6 39.975C36.6 38.8687 37.05 37.875 37.7625 37.1625C38.4938 36.45 39.4875 36 40.575 36H55.3875C57.5813 36 59.3813 37.7812 59.3813 39.9938C59.4 42.1875 57.6 43.9688 55.4063 43.9688Z" fill="#3B4652"/>
<path d="M59.2688 61.1814L48.9 54.9377C48.3375 54.6002 47.6438 54.6002 47.0813 54.9377L36.7125 61.1814C36.1875 61.5002 35.8688 62.0627 35.8688 62.6814V84.8252C35.8688 86.5877 37.3125 88.0314 39.075 88.0314H56.9063C58.6688 88.0314 60.1125 86.5877 60.1125 84.8252V62.7002C60.1313 62.0814 59.7938 61.5002 59.2688 61.1814ZM48 61.4064C49.3875 61.4064 50.5125 62.5314 50.5125 63.9189C50.5125 65.3064 49.3875 66.4314 48 66.4314C46.6125 66.4314 45.4875 65.3064 45.4875 63.9189C45.4875 62.5314 46.6125 61.4064 48 61.4064ZM47.475 75.5627H48.5063C50.3625 75.5627 51.8813 77.0814 51.8813 78.9377C51.8813 80.5127 50.775 81.8439 49.3125 82.2189V82.8564C49.3125 83.5877 48.7313 84.1689 48 84.1689C47.2688 84.1689 46.6875 83.5877 46.6875 82.8564V82.3127H45.4313C44.7 82.3127 44.1188 81.7314 44.1188 81.0002C44.1188 80.2689 44.7 79.6877 45.4313 79.6877H48.525C48.9375 79.6877 49.275 79.3502 49.275 78.9377C49.275 78.5252 48.9375 78.1877 48.525 78.1877H47.4938C45.6375 78.1877 44.1188 76.6689 44.1188 74.8127C44.1188 73.2377 45.225 71.9064 46.6875 71.5314V70.8939C46.6875 70.1627 47.2688 69.5814 48 69.5814C48.7313 69.5814 49.3125 70.1627 49.3125 70.8939V71.4377H50.5688C51.3 71.4377 51.8813 72.0189 51.8813 72.7502C51.8813 73.4814 51.3 74.0627 50.5688 74.0627H47.475C47.0625 74.0627 46.725 74.4002 46.725 74.8127C46.725 75.2252 47.0813 75.5627 47.475 75.5627Z" fill="#F26E22"/>
</svg>
