<svg width="153" height="153" viewBox="0 0 153 153" fill="none" xmlns="http://www.w3.org/2000/svg">
<path d="M143.198 72.4658L134.801 65.6227L127.361 66.3996C129.213 62.7539 128.347 58.2117 125.06 55.5223C121.653 52.7432 116.663 52.9225 113.465 55.8809C112.957 56.359 112.718 57.0463 112.808 57.6738H93.7723C90.0369 57.6738 86.9889 60.7219 86.9889 64.4572V86.6004H42.852V64.4572C42.852 60.7219 39.8039 57.6738 36.0686 57.6738H15.6287C11.8934 57.6738 8.84534 60.7219 8.84534 64.4572V108.325C8.84534 113.674 13.1783 118.037 18.5573 118.037H111.284C116.633 118.037 120.996 113.704 120.996 108.325V71.1211C122.43 70.882 123.834 70.2545 125 69.3281L125.777 76.769L134.174 83.6121C135.28 84.5086 136.923 84.3592 137.82 83.2236L143.587 76.1414C144.483 75.0059 144.304 73.3623 143.198 72.4658ZM123.087 65.3238C122.52 66.041 121.772 66.5192 120.966 66.7881V64.4572C120.966 61.7678 119.382 59.4369 117.111 58.3313C118.754 57.375 120.876 57.4945 122.4 58.7496C124.402 60.3932 124.701 63.3516 123.087 65.3238Z" fill="#3B4652"/>
<path d="M47.0355 64.4572V82.4168H82.8053V64.4572C82.8053 58.4209 87.7359 53.4902 93.7723 53.4902H106.383V32.124C106.383 26.4164 101.751 21.8145 96.0732 21.8145H33.7676C28.06 21.8145 23.458 26.4463 23.458 32.124V53.4902H36.0686C42.1049 53.4902 47.0355 58.4209 47.0355 64.4572Z" fill="#F26E22"/>
<path d="M23.4281 131.186H32.5722L39.5648 122.221H23.4281V131.186Z" fill="#F26E22"/>
<path d="M97.2387 131.186H106.383V122.221H90.2461L97.2387 131.186Z" fill="#F26E22"/>
</svg>
