<svg width="96" height="96" viewBox="0 0 96 96" fill="none" xmlns="http://www.w3.org/2000/svg">
<path d="M40.0982 70.4824L30.2393 93.7331L23.0855 86.78L13.1115 86.4709L23.8187 61.2236L24.0669 61.729C24.6514 62.9212 25.5166 63.9536 26.5883 64.7376C27.6599 65.5216 28.9058 66.0336 30.219 66.2297L35.1959 66.972L39.259 69.9432C39.5282 70.1389 39.8084 70.3189 40.0982 70.4824Z" fill="#F26E22"/>
<path d="M82.8884 86.4709L72.9145 86.78L65.7606 93.7331L55.71 70.0312L56.5289 70.153C57.842 70.3489 59.183 70.2229 60.4366 69.7859C61.6902 69.3489 62.8189 68.614 63.7257 67.6443L67.1661 63.9692L71.9196 62.3133C72.1317 62.2388 72.337 62.1576 72.54 62.0674L82.8884 86.4709Z" fill="#F26E22"/>
<path d="M59.5326 31.5758L51.6577 31.0048L48.6843 23.679C48.6274 23.538 48.529 23.4177 48.4022 23.3339C48.2754 23.2501 48.1262 23.2067 47.9742 23.2096C47.8263 23.2085 47.6815 23.2524 47.5592 23.3356C47.4369 23.4188 47.3429 23.5373 47.2897 23.6754L44.3147 31.0048L36.4369 31.576C36.288 31.5834 36.145 31.6362 36.027 31.7274C35.9091 31.8185 35.8218 31.9436 35.7771 32.0858C35.7283 32.2287 35.7244 32.383 35.766 32.5282C35.8076 32.6733 35.8927 32.8022 36.0097 32.8975L42.0542 37.9969L40.1642 45.6762C40.1253 45.8236 40.1323 45.9793 40.1844 46.1226C40.2365 46.2658 40.3311 46.3897 40.4556 46.4777C40.5752 46.5662 40.719 46.6162 40.8678 46.6209C41.0165 46.6256 41.1632 46.5848 41.2881 46.504L48.0057 42.3277L54.721 46.5225C54.8491 46.5981 54.9965 46.6343 55.1451 46.6268C55.2936 46.6192 55.4366 46.5682 55.5564 46.48C55.6762 46.3919 55.7674 46.2704 55.8187 46.1309C55.8701 45.9913 55.8793 45.8397 55.8452 45.6949L53.9549 38.0154L59.9999 32.9157C60.1141 32.819 60.1964 32.69 60.2361 32.5457C60.2758 32.4014 60.271 32.2484 60.2223 32.1069C60.1747 31.9589 60.0832 31.8289 59.9601 31.7341C59.8369 31.6392 59.6878 31.584 59.5326 31.5758Z" fill="#F26E22"/>
<path d="M79.5462 26.1922L75.687 21.5895L74.4089 15.7207C74.2624 15.0481 73.9548 14.421 73.5125 13.8935C73.0702 13.366 72.5064 12.9537 71.8696 12.6922L66.3135 10.4102L62.4545 5.80755C62.0121 5.28003 61.4484 4.8678 60.8116 4.60626C60.1748 4.34472 59.484 4.2417 58.7986 4.30605L52.8185 4.86743L47.2624 2.58545C46.6257 2.3239 45.9349 2.22087 45.2495 2.28522C44.5641 2.34956 43.9045 2.57935 43.3276 2.95485L38.2933 6.23107L32.3132 6.79252C31.6278 6.85686 30.9683 7.08666 30.3913 7.46216C29.8143 7.83765 29.3371 8.34762 29.0007 8.94825L26.0656 14.1887L21.0314 17.4649C20.4544 17.8404 19.9772 18.3503 19.6408 18.951C19.3044 19.5516 19.1189 20.2249 19.1002 20.9131L18.9367 26.9173L16.0016 32.1577C15.6652 32.7584 15.4797 33.4317 15.4609 34.1198C15.4422 34.808 15.5908 35.4904 15.894 36.1084L18.5395 41.5009L18.376 47.5051C18.3573 48.1932 18.5059 48.8757 18.8091 49.4937C19.1124 50.1117 19.5611 50.6469 20.1168 51.0533L24.9653 54.5986L27.6108 59.9911C27.914 60.6091 28.3627 61.1443 28.9184 61.5506C29.4741 61.9569 30.1201 62.2223 30.801 62.3238L36.7417 63.2099L41.5902 66.7552C42.1459 67.1616 42.7919 67.4269 43.4728 67.5285C44.1537 67.63 44.849 67.5647 45.4991 67.3382L51.1711 65.362L57.1118 66.248C57.7927 66.3496 58.4881 66.2843 59.1381 66.0578C59.7882 65.8313 60.3736 65.4503 60.844 64.9477L64.9479 60.5619L70.6199 58.5856C71.2699 58.3591 71.8553 57.9782 72.3257 57.4755C72.796 56.9729 73.1373 56.3635 73.3202 55.6998L74.9159 49.9093L79.0198 45.5235C79.4901 45.0208 79.8314 44.4115 80.0143 43.7478C80.1972 43.0841 80.2162 42.3859 80.0697 41.7133L78.7915 35.8444L80.3872 30.0539C80.5701 29.3902 80.5891 28.692 80.4426 28.0194C80.2961 27.3467 79.9885 26.7197 79.5462 26.1922ZM47.9997 54.3845C44.1501 54.3845 40.387 53.243 37.1862 51.1043C33.9854 48.9656 31.4907 45.9258 30.0175 42.3692C28.5444 38.8127 28.1589 34.8992 28.9099 31.1236C29.661 27.348 31.5147 23.8799 34.2367 21.1579C36.9588 18.4358 40.4269 16.5821 44.2025 15.8311C47.9781 15.0801 51.8916 15.4655 55.4481 16.9387C59.0047 18.4118 62.0445 20.9065 64.1832 24.1073C66.3219 27.3081 67.4634 31.0712 67.4634 34.9208C67.4634 37.4768 66.96 40.0078 65.9818 42.3693C65.0037 44.7307 63.57 46.8764 61.7626 48.6837C59.9552 50.4911 57.8096 51.9248 55.4481 52.9029C53.0867 53.8811 50.5557 54.3845 47.9997 54.3845Z" fill="#2D3E50"/>
</svg>
