<svg width="96" height="96" viewBox="0 0 96 96" fill="none" xmlns="http://www.w3.org/2000/svg">
<path d="M8.75626 36.75H13.4625C12.5062 38.4938 12.2063 40.5188 12.6375 42.4875C13.1063 44.6438 14.4 46.5 16.2563 47.6813C17.5875 48.5438 19.1438 48.9937 20.7188 48.9937C23.55 48.9937 26.1562 47.5688 27.6938 45.1875L33.1125 36.75H62.8875L68.3062 45.1875C69.8437 47.5688 72.45 48.9937 75.2812 48.9937C76.875 48.9937 78.4125 48.5438 79.7437 47.6813C81.6 46.4813 82.8937 44.6438 83.3625 42.4875C83.7937 40.5188 83.4937 38.4938 82.5375 36.75H87.2437C89.1 36.75 90.6187 38.2688 90.6187 40.125V50.025C90.6187 51.8812 89.1 53.4 87.2437 53.4H8.75626C6.9 53.4 5.38126 51.8812 5.38126 50.025V40.125C5.38126 38.2688 6.9 36.75 8.75626 36.75Z" fill="#3B4652"/>
<path d="M78.7687 82.9877C78.2625 85.5377 76.0125 87.3939 73.4062 87.3939H22.575C19.9687 87.3939 17.7187 85.5564 17.2125 82.9877L11.8875 56.0439H84.075L78.7687 82.9877ZM25.6875 81.4127L21.2437 58.8752C21.0937 58.1627 20.4187 57.6939 19.7062 57.8439C18.9937 57.9939 18.525 58.6689 18.675 59.3814L23.1187 81.9189C23.25 82.5377 23.7937 82.9689 24.4125 82.9689C24.5062 82.9689 24.5812 82.9689 24.675 82.9502C25.3687 82.8189 25.8375 82.1252 25.6875 81.4127ZM60.975 63.8064H35.0062C32.5687 63.8064 30.6 65.7752 30.6 68.2127C30.6 70.6502 32.5687 72.6189 35.0062 72.6189H60.975C63.4125 72.6189 65.3812 70.6502 65.3812 68.2127C65.4 65.7752 63.4125 63.8064 60.975 63.8064ZM76.3125 57.8439C75.6 57.6939 74.9062 58.1627 74.775 58.8752L70.3125 81.4127C70.1625 82.1252 70.6312 82.8189 71.3437 82.9502C71.4375 82.9689 71.5125 82.9689 71.6062 82.9689C72.225 82.9689 72.7687 82.5377 72.9 81.9189L77.3437 59.3814C77.475 58.6689 77.0062 57.9752 76.3125 57.8439Z" fill="#3B4652"/>
<path d="M78.3187 45.4873C75.6937 47.1748 72.1875 46.4061 70.5 43.7811L66 36.7498L53.5312 17.3061C52.9312 16.3686 52.6312 15.2998 52.6312 14.2498C52.6312 12.3936 53.55 10.5748 55.2375 9.4873C57.8625 7.7998 61.3687 8.56855 63.0562 11.1936L79.4437 36.7686L80.025 37.6873C81.7125 40.3123 80.9437 43.7998 78.3187 45.4873Z" fill="#F26E22"/>
<path d="M30 36.7684L25.5 43.7996C23.8125 46.4246 20.325 47.1934 17.6812 45.5059C15.0562 43.8184 14.2875 40.3309 15.975 37.6871L16.5562 36.7684L32.9437 11.2121C34.6312 8.58711 38.1187 7.81836 40.7625 9.50586C42.45 10.5934 43.3687 12.4121 43.3687 14.2684C43.3687 15.3184 43.0875 16.3684 42.4687 17.3246L30 36.7684Z" fill="#F26E22"/>
</svg>
