<!DOCTYPE svg PUBLIC "-//W3C//DTD SVG 1.1//EN" "http://www.w3.org/Graphics/SVG/1.1/DTD/svg11.dtd">
<!-- Uploaded to: SVG Repo, www.svgrepo.com, Transformed by: SVG Repo Mixer Tools -->
<svg width="800px" height="800px" viewBox="0 0 64 64" fill="none" xmlns="http://www.w3.org/2000/svg">
<g id="SVGRepo_bgCarrier" stroke-width="0"/>
<g id="SVGRepo_tracerCarrier" stroke-linecap="round" stroke-linejoin="round"/>
<g id="SVGRepo_iconCarrier"> <path d="M31.521 55.515V39.515" stroke="#000000" stroke-width="4" stroke-linecap="round" stroke-linejoin="round"/> <path d="M31.521 28.845V7.51501" stroke="#000000" stroke-width="4" stroke-linecap="round" stroke-linejoin="round"/> <path d="M31.521 39.514C34.468 39.514 36.857 37.125 36.857 34.178C36.857 31.231 34.468 28.842 31.521 28.842C28.574 28.842 26.185 31.231 26.185 34.178C26.185 37.125 28.574 39.514 31.521 39.514Z" stroke="#F26E22" stroke-width="4" stroke-linecap="round" stroke-linejoin="round"/> <path d="M50.191 55.515V31.515" stroke="#000000" stroke-width="4" stroke-linecap="round" stroke-linejoin="round"/> <path d="M50.191 20.845V7.51501" stroke="#000000" stroke-width="4" stroke-linecap="round" stroke-linejoin="round"/> <path d="M50.19 31.514C53.137 31.514 55.526 29.125 55.526 26.178C55.526 23.231 53.137 20.842 50.19 20.842C47.243 20.842 44.854 23.231 44.854 26.178C44.854 29.125 47.243 31.514 50.19 31.514Z" stroke="#F26E22" stroke-width="4" stroke-linecap="round" stroke-linejoin="round"/> <path d="M12.861 55.515V31.515" stroke="#000000" stroke-width="4" stroke-linecap="round" stroke-linejoin="round"/> <path d="M12.861 20.845V7.51501" stroke="#000000" stroke-width="4" stroke-linecap="round" stroke-linejoin="round"/> <path d="M12.857 31.514C15.804 31.514 18.193 29.125 18.193 26.178C18.193 23.231 15.804 20.842 12.857 20.842C9.91 20.842 7.521 23.231 7.521 26.178C7.521 29.125 9.91 31.514 12.857 31.514Z" stroke="#F26E22" stroke-width="4" stroke-linecap="round" stroke-linejoin="round"/> </g>
</svg>