<svg width="22" height="23" viewBox="0 0 22 23" fill="none" xmlns="http://www.w3.org/2000/svg">
<path d="M5.014 7.2372C5.12827 6.35894 6.30277 5.1653 7.23488 5.29775L7.23339 5.2963C8.14051 5.46382 8.85859 6.98111 9.2635 7.66336C9.5504 8.15837 9.3641 8.65991 9.0965 8.87154C8.7355 9.1543 8.17099 9.54445 8.28943 9.93619C8.5 10.6326 11 13.0621 12.2296 13.7528C12.695 14.0142 13.0325 13.3247 13.3207 12.9715C13.5301 12.6997 14.0466 12.5374 14.5548 12.8056C15.3138 13.2351 16.0288 13.7343 16.69 14.2963C17.0202 14.5646 17.0977 14.961 16.8689 15.3799C16.4659 16.1178 15.3003 17.0909 14.4542 16.8931C12.9764 16.5478 7 14.2963 5.08033 7.77353C4.97237 7.46495 4.99955 7.34829 5.014 7.2372Z" fill="white"/>
<path fill-rule="evenodd" clip-rule="evenodd" d="M11 21.8085C9.7764 21.8085 9.0994 21.6809 8 21.3226L5.89443 22.3457C4.56462 22.9919 3 22.0521 3 20.6072V18.4071C0.84655 16.4557 0 14.2057 0 11.1185C0 5.21462 4.92487 0.428558 11 0.428558C17.0751 0.428558 22 5.21462 22 11.1185C22 17.0224 17.0751 21.8085 11 21.8085ZM5 17.5619L4.36395 16.9856C2.69087 15.4695 2 13.7746 2 11.1185C2 6.28806 6.02944 2.37219 11 2.37219C15.9706 2.37219 20 6.28806 20 11.1185C20 15.949 15.9706 19.8649 11 19.8649C10.0143 19.8649 9.552 19.7784 8.63595 19.4798L7.84847 19.2232L5 20.6072V17.5619Z" fill="white"/>
</svg>
